<svg width="322" height="24" viewBox="0 0 322 24" fill="none" xmlns="http://www.w3.org/2000/svg">
<path d="M22 12C22 6.48 17.52 2 12 2C6.48 2 2 6.48 2 12C2 16.84 5.44 20.87 10 21.8V15H8V12H10V9.5C10 7.57 11.57 6 13.5 6H16V9H14C13.45 9 13 9.45 13 10V12H16V15H13V21.95C18.05 21.45 22 17.19 22 12Z" fill="#A9A0B5"/>
<path d="M83.04 21.54C84 21.83 84.97 22 86 22C88.6522 22 91.1957 20.9464 93.0711 19.0711C94.9464 17.1957 96 14.6522 96 12C96 10.6868 95.7413 9.38642 95.2388 8.17317C94.7362 6.95991 93.9997 5.85752 93.0711 4.92893C92.1425 4.00035 91.0401 3.26375 89.8268 2.7612C88.6136 2.25866 87.3132 2 86 2C84.6868 2 83.3864 2.25866 82.1732 2.7612C80.9599 3.26375 79.8575 4.00035 78.9289 4.92893C77.0536 6.8043 76 9.34784 76 12C76 16.25 78.67 19.9 82.44 21.34C82.35 20.56 82.26 19.27 82.44 18.38L83.59 13.44C83.59 13.44 83.3 12.86 83.3 11.94C83.3 10.56 84.16 9.53 85.14 9.53C86 9.53 86.4 10.16 86.4 10.97C86.4 11.83 85.83 13.06 85.54 14.24C85.37 15.22 86.06 16.08 87.06 16.08C88.84 16.08 90.22 14.18 90.22 11.5C90.22 9.1 88.5 7.46 86.03 7.46C83.21 7.46 81.55 9.56 81.55 11.77C81.55 12.63 81.83 13.5 82.29 14.07C82.38 14.13 82.38 14.21 82.35 14.36L82.06 15.45C82.06 15.62 81.95 15.68 81.78 15.56C80.5 15 79.76 13.18 79.76 11.71C79.76 8.55 82 5.68 86.32 5.68C89.76 5.68 92.44 8.15 92.44 11.43C92.44 14.87 90.31 17.63 87.26 17.63C86.29 17.63 85.34 17.11 85 16.5L84.33 18.87C84.1 19.73 83.47 20.88 83.04 21.57V21.54Z" fill="#A9A0B5"/>
<g clip-path="url(#clip0_68_356)">
<path d="M160 2.3999C154.698 2.3999 150.4 6.6979 150.4 11.9999C150.4 17.3019 154.698 21.5999 160 21.5999C165.302 21.5999 169.6 17.3019 169.6 11.9999C169.6 6.6979 165.302 2.3999 160 2.3999ZM163.692 13.2309C163.692 13.2309 164.541 14.0689 164.75 14.4579C164.756 14.4666 164.76 14.4732 164.761 14.4779C164.846 14.6199 164.867 14.7322 164.824 14.8149C164.754 14.9529 164.514 15.0209 164.432 15.0269H162.932C162.828 15.0269 162.61 14.9999 162.346 14.8179C162.143 14.6759 161.943 14.4429 161.748 14.2159C161.457 13.8779 161.205 13.5859 160.951 13.5859C160.919 13.5858 160.887 13.5908 160.856 13.6009C160.664 13.6629 160.418 13.9369 160.418 14.6669C160.418 14.8949 160.238 15.0259 160.111 15.0259H159.424C159.19 15.0259 157.971 14.9439 156.891 13.8049C155.569 12.4099 154.379 9.6119 154.369 9.5859C154.294 9.4049 154.449 9.3079 154.618 9.3079H156.133C156.335 9.3079 156.401 9.4309 156.447 9.5399C156.501 9.6669 156.699 10.1719 157.024 10.7399C157.551 11.6659 157.874 12.0419 158.133 12.0419C158.181 12.0413 158.229 12.029 158.272 12.0059C158.61 11.8179 158.547 10.6129 158.532 10.3629C158.532 10.3159 158.531 9.8239 158.358 9.5879C158.234 9.4169 158.023 9.3519 157.895 9.3279C157.947 9.25641 158.015 9.19845 158.094 9.1589C158.326 9.0429 158.744 9.0259 159.159 9.0259H159.39C159.84 9.0319 159.956 9.0609 160.119 9.1019C160.449 9.1809 160.456 9.3939 160.427 10.1229C160.418 10.3299 160.409 10.5639 160.409 10.8399L160.406 11.0319C160.396 11.4029 160.384 11.8239 160.646 11.9969C160.68 12.0192 160.719 12.0307 160.76 12.0299C160.851 12.0299 161.125 12.0299 161.867 10.7569C162.095 10.3467 162.294 9.921 162.462 9.4829C162.477 9.4569 162.521 9.3769 162.573 9.3459C162.612 9.32747 162.654 9.31758 162.697 9.3169H164.478C164.672 9.3169 164.805 9.3459 164.83 9.4209C164.874 9.5399 164.822 9.9029 164.009 11.0039L163.646 11.4829C162.909 12.4489 162.909 12.4979 163.692 13.2309Z" fill="#A9A0B5"/>
</g>
<path d="M232.001 2C237.524 2 242.001 6.477 242.001 12C242.001 17.523 237.524 22 232.001 22C230.234 22.003 228.498 21.5353 226.971 20.645L222.005 22L223.357 17.032C222.466 15.5049 221.998 13.768 222.001 12C222.001 6.477 226.478 2 232.001 2ZM228.593 7.3L228.393 7.308C228.264 7.31691 228.137 7.35087 228.021 7.408C227.913 7.46951 227.814 7.5463 227.727 7.636C227.607 7.749 227.539 7.847 227.466 7.942C227.096 8.4229 226.897 9.01331 226.9 9.62C226.902 10.11 227.03 10.587 227.23 11.033C227.639 11.935 228.312 12.89 229.2 13.775C229.414 13.988 229.624 14.202 229.85 14.401C230.953 15.3724 232.268 16.073 233.69 16.447L234.258 16.534C234.443 16.544 234.628 16.53 234.814 16.521C235.105 16.5056 235.389 16.4268 235.647 16.29C235.778 16.2223 235.906 16.1489 236.03 16.07C236.03 16.07 236.072 16.0413 236.155 15.98C236.29 15.88 236.373 15.809 236.485 15.692C236.569 15.6053 236.639 15.5047 236.695 15.39C236.773 15.227 236.851 14.916 236.883 14.657C236.907 14.459 236.9 14.351 236.897 14.284C236.893 14.177 236.804 14.066 236.707 14.019L236.125 13.758C236.125 13.758 235.255 13.379 234.723 13.137C234.667 13.1128 234.608 13.0989 234.547 13.096C234.479 13.0888 234.409 13.0965 234.344 13.1184C234.279 13.1403 234.219 13.176 234.169 13.223C234.164 13.221 234.097 13.278 233.374 14.154C233.332 14.2098 233.275 14.2519 233.21 14.2751C233.144 14.2982 233.073 14.3013 233.006 14.284C232.941 14.2666 232.877 14.2446 232.815 14.218C232.691 14.166 232.648 14.146 232.563 14.11C231.989 13.8599 231.457 13.5215 230.988 13.107C230.862 12.997 230.745 12.877 230.625 12.761C230.232 12.3842 229.889 11.958 229.605 11.493L229.546 11.398C229.504 11.3338 229.47 11.265 229.444 11.193C229.406 11.046 229.505 10.928 229.505 10.928C229.505 10.928 229.748 10.662 229.861 10.518C229.971 10.378 230.064 10.242 230.124 10.145C230.242 9.955 230.279 9.76 230.217 9.609C229.937 8.925 229.648 8.24467 229.349 7.568C229.29 7.434 229.115 7.338 228.956 7.319C228.902 7.31233 228.848 7.307 228.794 7.303C228.66 7.2953 228.525 7.29664 228.391 7.307L228.593 7.3Z" fill="#A9A0B5"/>
<path fill-rule="evenodd" clip-rule="evenodd" d="M306.593 23.2579L306.582 23.2599L306.511 23.2949L306.491 23.2989L306.477 23.2949L306.406 23.2599C306.396 23.2566 306.388 23.2583 306.382 23.2649L306.378 23.2749L306.361 23.7029L306.366 23.7229L306.376 23.7359L306.48 23.8099L306.495 23.8139L306.507 23.8099L306.611 23.7359L306.623 23.7199L306.627 23.7029L306.61 23.2759C306.608 23.2653 306.602 23.2593 306.593 23.2579ZM306.858 23.1449L306.845 23.1469L306.66 23.2399L306.65 23.2499L306.647 23.2609L306.665 23.6909L306.67 23.7029L306.678 23.7099L306.879 23.8029C306.892 23.8063 306.902 23.8036 306.908 23.7949L306.912 23.7809L306.878 23.1669C306.875 23.1549 306.868 23.1476 306.858 23.1449ZM306.143 23.1469C306.139 23.1443 306.133 23.1434 306.128 23.1445C306.123 23.1456 306.119 23.1487 306.116 23.1529L306.11 23.1669L306.076 23.7809C306.077 23.7929 306.083 23.8009 306.093 23.8049L306.108 23.8029L306.309 23.7099L306.319 23.7019L306.323 23.6909L306.34 23.2609L306.337 23.2489L306.327 23.2389L306.143 23.1469Z" fill="#A9A0B5"/>
<path fill-rule="evenodd" clip-rule="evenodd" d="M306 2C311.523 2 316 6.477 316 12C316 17.523 311.523 22 306 22C304.298 22.0024 302.624 21.5686 301.137 20.74L300.832 20.562L297.8 21.454C297.635 21.5026 297.46 21.5083 297.293 21.4705C297.125 21.4327 296.969 21.3526 296.841 21.238C296.713 21.1233 296.616 20.9778 296.56 20.8152C296.504 20.6526 296.49 20.4784 296.52 20.309L296.546 20.2L297.438 17.168C296.495 15.6093 295.998 13.8218 296 12C296 6.477 300.477 2 306 2ZM303.793 9.793L300.793 12.793C300.697 12.8852 300.621 12.9956 300.569 13.1176C300.516 13.2396 300.489 13.3708 300.488 13.5036C300.487 13.6364 300.512 13.7681 300.562 13.891C300.612 14.0139 300.687 14.1255 300.781 14.2194C300.875 14.3133 300.986 14.3875 301.109 14.4378C301.232 14.4881 301.364 14.5134 301.496 14.5123C301.629 14.5111 301.76 14.4835 301.882 14.4311C302.004 14.3787 302.115 14.3025 302.207 14.207L304.5 11.914L306.793 14.207C306.981 14.3945 307.235 14.4998 307.5 14.4998C307.765 14.4998 308.019 14.3945 308.207 14.207L311.207 11.207C311.389 11.0184 311.49 10.7658 311.488 10.5036C311.485 10.2414 311.38 9.99059 311.195 9.80518C311.009 9.61977 310.759 9.5146 310.496 9.51233C310.234 9.51005 309.982 9.61084 309.793 9.793L307.5 12.086L305.207 9.793C305.019 9.60553 304.765 9.50021 304.5 9.50021C304.235 9.50021 303.981 9.60553 303.793 9.793Z" fill="#A9A0B5"/>
<defs>
<clipPath id="clip0_68_356">
<rect width="20" height="20" fill="white" transform="translate(150 2)"/>
</clipPath>
</defs>
</svg>
