<svg width="80" height="80" viewBox="0 0 80 80" fill="none" xmlns="http://www.w3.org/2000/svg">
<g clip-path="url(#clip0_68_237)">
<path d="M39.9998 50.2599L18.1823 29.0299C18.0064 28.8551 17.7977 28.717 17.5681 28.6234C17.3385 28.5298 17.0927 28.4827 16.8448 28.4847C16.5969 28.4868 16.3518 28.538 16.1238 28.6354C15.8958 28.7328 15.6894 28.8744 15.5165 29.0521C15.3436 29.2298 15.2077 29.44 15.1166 29.6705C15.0255 29.9011 14.981 30.1475 14.9857 30.3953C14.9904 30.6432 15.0442 30.8877 15.1441 31.1146C15.2439 31.3416 15.3877 31.5465 15.5673 31.7174L38.6923 54.2174C39.0423 54.558 39.5114 54.7485 39.9998 54.7485C40.4881 54.7485 40.9572 54.558 41.3073 54.2174L64.4323 31.7174C64.6118 31.5465 64.7556 31.3416 64.8555 31.1146C64.9553 30.8877 65.0091 30.6432 65.0138 30.3953C65.0186 30.1475 64.9741 29.9011 64.883 29.6705C64.7918 29.44 64.6559 29.2298 64.483 29.0521C64.3101 28.8744 64.1037 28.7328 63.8757 28.6354C63.6477 28.538 63.4027 28.4868 63.1548 28.4847C62.9069 28.4827 62.661 28.5298 62.4314 28.6234C62.2018 28.717 61.9931 28.8551 61.8173 29.0299L39.9998 50.2599Z" fill="#A9A0B5"/>
</g>
<circle cx="40" cy="40" r="39.5" stroke="#A9A0B5"/>
<defs>
<clipPath id="clip0_68_237">
<rect width="40" height="60" fill="white" transform="translate(10 60) rotate(-90)"/>
</clipPath>
</defs>
</svg>
